<svg width="24" height="24" viewBox="0 0 24 24" fill="none" xmlns="http://www.w3.org/2000/svg">
  <!-- Recon / Military: sensor dish + crosshair -->
  <path d="M12 4c-4 0-7 3-7 7s3 7 7 7 7-3 7-7-3-7-7-7z" fill="none" stroke="#FFFFFF" stroke-width="1.5"/>
  <circle cx="12" cy="11" r="3" fill="none" stroke="#FFFFFF" stroke-width="1.2"/>
  <circle cx="12" cy="11" r="1" fill="#FFFFFF"/>
  <line x1="12" y1="2" x2="12" y2="5" stroke="#FFFFFF" stroke-width="1"/>
  <line x1="12" y1="17" x2="12" y2="20" stroke="#FFFFFF" stroke-width="1"/>
  <line x1="2" y1="11" x2="5" y2="11" stroke="#FFFFFF" stroke-width="1"/>
  <line x1="19" y1="11" x2="22" y2="11" stroke="#FFFFFF" stroke-width="1"/>
  <path d="M5.5 5.5L7.5 7.5M16.5 5.5L14.5 7.5M5.5 16.5L7.5 14.5M16.5 16.5L14.5 14.5" stroke="#FFFFFF" stroke-width="0.8" stroke-linecap="round"/>
</svg>
